ffmpeg started on 2026-01-14 at 14:29:56
Report written to "D:\Convert\FFMetrics\reports\psnr_report-6.txt"
Log level: 32
Command line:
ffmpeg -hide_banner -nostdin -r 24000/1001 -i "F:\\Convert\\files\\[DC] Make Heroine ga Oosugiru - 07_Telegram_HEVC(138).mkv" -r 24000/1001 -i "F:\\Convert\\files\\[DC] Make Heroine ga Oosugiru - 07_Telegram.mp4" -lavfi "[0:v]settb=AVTB,setpts=PTS-STARTPTS,format=pix_fmts=yuv420p10le,fps=24000/1001,scale=1920:1080:flags=lanczos:param0=3:out_range=limited:out_color_matrix=bt709:out_chroma_loc=left,setsar=1/1,setdar=(1920/1080)*(1/1),colorspace=format=yuv420p10:range=tv:primaries=bt709:trc=bt709:space=bt709:fast=0[main];[1:v]settb=AVTB,setpts=PTS-STARTPTS,format=pix_fmts=yuv420p,fps=24000/1001,scale=1920:1080:flags=lanczos:param0=3:out_range=limited:out_color_matrix=bt709:out_chroma_loc=left,setsar=1.000,setdar=1.778,colorspace=format=yuv420p:range=tv:primaries=bt709:trc=bt709:space=bt709:fast=0[ref];[main][ref]psnr=eof_action=endall:stats_file='D\\:/Convert/FFMetrics/logs/psnr_logfile-6.txt'" -f null -
Input #0, matroska,webm, from 'F:\Convert\files\[DC] Make Heroine ga Oosugiru - 07_Telegram_HEVC(138).mkv':
  Metadata:
    COMPATIBLE_BRANDS: isomiso2avc1mp41
    MAJOR_BRAND     : isom
    MINOR_VERSION   : 512
    ENCODER         : Lavf61.7.100
  Duration: 00:24:06.79, start: -0.021000, bitrate: 978 kb/s
  Stream #0:0: Video: hevc (Main 10), yuv420p10le(tv, bt709, progressive), 1920x1080 [SAR 1:1 DAR 16:9], 23.98 fps, 23.98 tbr, 1k tbn (default)
      Metadata:
        HANDLER_NAME    : VideoHandler
        VENDOR_ID       : [0][0][0][0]
        ENCODER         : Lavc61.19.100 libx265
        BPS             : 781388
        DURATION        : 00:24:06.569708333
        NUMBER_OF_FRAMES: 34683
        NUMBER_OF_BYTES : 141291500
        _STATISTICS_WRITING_APP: mkvpropedit v94.0 ('Initiate') 64-bit
        _STATISTICS_WRITING_DATE_UTC: 2026-01-14 10:51:51
        _STATISTICS_TAGS: BPS DURATION NUMBER_OF_FRAMES NUMBER_OF_BYTES
  Stream #0:1: Audio: aac (LC), 48000 Hz, stereo, fltp (default)
      Metadata:
        HANDLER_NAME    : SoundHandler
        VENDOR_ID       : [0][0][0][0]
        ENCODER         : Lavc61.19.100 aac
        BPS             : 193194
        DURATION        : 00:24:06.784000000
        NUMBER_OF_FRAMES: 67819
        NUMBER_OF_BYTES : 34938755
        _STATISTICS_WRITING_APP: mkvpropedit v94.0 ('Initiate') 64-bit
        _STATISTICS_WRITING_DATE_UTC: 2026-01-14 10:51:51
        _STATISTICS_TAGS: BPS DURATION NUMBER_OF_FRAMES NUMBER_OF_BYTES
Input #1, mov,mp4,m4a,3gp,3g2,mj2, from 'F:\Convert\files\[DC] Make Heroine ga Oosugiru - 07_Telegram.mp4':
  Metadata:
    major_brand     : isom
    minor_version   : 512
    compatible_brands: isomiso2avc1mp41
    encoder         : Lavf60.16.100
  Duration: 00:24:06.74, start: 0.000000, bitrate: 3764 kb/s
  Stream #1:0[0x1](und): Video: h264 (High) (avc1 / 0x31637661), yuv420p(tv, bt709, progressive), 1920x1080 [SAR 1:1 DAR 16:9], 3616 kb/s, 23.98 fps, 23.98 tbr, 24k tbn (default)
      Metadata:
        handler_name    : VideoHandler
        vendor_id       : [0][0][0][0]
        encoder         : Lavc60.31.102 h264_qsv
  Stream #1:1[0x2](und): Audio: aac (HE-AACv2) (mp4a / 0x6134706D), 48000 Hz, stereo, fltp, 144 kb/s (default)
      Metadata:
        handler_name    : SoundHandler
        vendor_id       : [0][0][0][0]
Stream mapping:
  Stream #0:0 (hevc) -> settb:default
  Stream #1:0 (h264) -> settb:default
  psnr:default -> Stream #0:0 (wrapped_avframe)
  Stream #0:1 -> #0:1 (aac (native) -> pcm_s16le (native))
Output #0, null, to 'pipe:':
  Metadata:
    COMPATIBLE_BRANDS: isomiso2avc1mp41
    MAJOR_BRAND     : isom
    MINOR_VERSION   : 512
    encoder         : Lavf61.7.100
  Stream #0:0: Video: wrapped_avframe, yuv420p10le(tv, bt709, progressive), 1920x1080 [SAR 1:1 DAR 16:9], q=2-31, 200 kb/s, 23.98 fps, 23.98 tbn
      Metadata:
        encoder         : Lavc61.19.100 wrapped_avframe
  Stream #0:1: Audio: pcm_s16le, 48000 Hz, stereo, s16, 1536 kb/s (default)
      Metadata:
        HANDLER_NAME    : SoundHandler
        VENDOR_ID       : [0][0][0][0]
        _STATISTICS_TAGS: BPS DURATION NUMBER_OF_FRAMES NUMBER_OF_BYTES
        BPS             : 193194
        DURATION        : 00:24:06.784000000
        NUMBER_OF_FRAMES: 67819
        NUMBER_OF_BYTES : 34938755
        _STATISTICS_WRITING_APP: mkvpropedit v94.0 ('Initiate') 64-bit
        _STATISTICS_WRITING_DATE_UTC: 2026-01-14 10:51:51
        encoder         : Lavc61.19.100 pcm_s16le
frame=  127 fps=0.0 q=-0.0 size=N/A time=00:00:05.29 bitrate=N/A speed=10.5x    frame=  321 fps=311 q=-0.0 size=N/A time=00:00:13.38 bitrate=N/A speed=  13x    frame=  523 fps=339 q=-0.0 size=N/A time=00:00:21.81 bitrate=N/A speed=14.1x    frame=  713 fps=347 q=-0.0 size=N/A time=00:00:29.73 bitrate=N/A speed=14.5x    frame=  896 fps=347 q=-0.0 size=N/A time=00:00:37.37 bitrate=N/A speed=14.5x    frame= 1039 fps=336 q=-0.0 size=N/A time=00:00:43.33 bitrate=N/A speed=  14x    frame= 1202 fps=333 q=-0.0 size=N/A time=00:00:50.13 bitrate=N/A speed=13.9x    frame= 1352 fps=329 q=-0.0 size=N/A time=00:00:56.38 bitrate=N/A speed=13.7x    frame= 1512 fps=326 q=-0.0 size=N/A time=00:01:03.06 bitrate=N/A speed=13.6x    frame= 1655 fps=321 q=-0.0 size=N/A time=00:01:09.02 bitrate=N/A speed=13.4x    frame= 1818 fps=321 q=-0.0 size=N/A time=00:01:15.82 bitrate=N/A speed=13.4x    frame= 1975 fps=320 q=-0.0 size=N/A time=00:01:22.37 bitrate=N/A speed=13.3x    frame= 2096 fps=313 q=-0.0 size=N/A time=00:01:27.42 bitrate=N/A speed=  13x    frame= 2244 fps=311 q=-0.0 size=N/A time=00:01:33.59 bitrate=N/A speed=  13x    frame= 2388 fps=309 q=-0.0 size=N/A time=00:01:39.59 bitrate=N/A speed=12.9x    frame= 2525 fps=306 q=-0.0 size=N/A time=00:01:45.31 bitrate=N/A speed=12.8x    frame= 2681 fps=306 q=-0.0 size=N/A time=00:01:51.82 bitrate=N/A speed=12.8x    frame= 2859 fps=308 q=-0.0 size=N/A time=00:01:59.24 bitrate=N/A speed=12.9x    frame= 3035 fps=310 q=-0.0 size=N/A time=00:02:06.58 bitrate=N/A speed=12.9x    frame= 3224 fps=313 q=-0.0 size=N/A time=00:02:14.46 bitrate=N/A speed=13.1x    frame= 3416 fps=315 q=-0.0 size=N/A time=00:02:22.47 bitrate=N/A speed=13.2x    frame= 3608 fps=318 q=-0.0 size=N/A time=00:02:30.48 bitrate=N/A speed=13.3x    frame= 3803 fps=321 q=-0.0 size=N/A time=00:02:38.61 bitrate=N/A speed=13.4x    frame= 3992 fps=323 q=-0.0 size=N/A time=00:02:46.49 bitrate=N/A speed=13.5x    frame= 4195 fps=325 q=-0.0 size=N/A time=00:02:54.96 bitrate=N/A speed=13.6x    frame= 4388 fps=327 q=-0.0 size=N/A time=00:03:03.01 bitrate=N/A speed=13.7x    frame= 4574 fps=329 q=-0.0 size=N/A time=00:03:10.77 bitrate=N/A speed=13.7x    frame= 4761 fps=330 q=-0.0 size=N/A time=00:03:18.57 bitrate=N/A speed=13.8x    frame= 4958 fps=332 q=-0.0 size=N/A time=00:03:26.78 bitrate=N/A speed=13.8x    frame= 5152 fps=333 q=-0.0 size=N/A time=00:03:34.88 bitrate=N/A speed=13.9x    frame= 5342 fps=334 q=-0.0 size=N/A time=00:03:42.80 bitrate=N/A speed=13.9x    frame= 5531 fps=335 q=-0.0 size=N/A time=00:03:50.68 bitrate=N/A speed=  14x    frame= 5721 fps=336 q=-0.0 size=N/A time=00:03:58.61 bitrate=N/A speed=  14x    frame= 5910 fps=337 q=-0.0 size=N/A time=00:04:06.49 bitrate=N/A speed=14.1x    frame= 6099 fps=338 q=-0.0 size=N/A time=00:04:14.37 bitrate=N/A speed=14.1x    frame= 6295 fps=339 q=-0.0 size=N/A time=00:04:22.55 bitrate=N/A speed=14.1x    frame= 6484 fps=340 q=-0.0 size=N/A time=00:04:30.43 bitrate=N/A speed=14.2x    frame= 6686 fps=341 q=-0.0 size=N/A time=00:04:38.86 bitrate=N/A speed=14.2x    frame= 6880 fps=342 q=-0.0 size=N/A time=00:04:46.95 bitrate=N/A speed=14.3x    frame= 7069 fps=343 q=-0.0 size=N/A time=00:04:54.83 bitrate=N/A speed=14.3x    frame= 7262 fps=344 q=-0.0 size=N/A time=00:05:02.88 bitrate=N/A speed=14.3x    frame= 7454 fps=344 q=-0.0 size=N/A time=00:05:10.89 bitrate=N/A speed=14.4x    frame= 7627 fps=344 q=-0.0 size=N/A time=00:05:18.10 bitrate=N/A speed=14.4x    frame= 7811 fps=344 q=-0.0 size=N/A time=00:05:25.78 bitrate=N/A speed=14.4x    frame= 7998 fps=345 q=-0.0 size=N/A time=00:05:33.58 bitrate=N/A speed=14.4x    frame= 8192 fps=345 q=-0.0 size=N/A time=00:05:41.67 bitrate=N/A speed=14.4x    frame= 8379 fps=346 q=-0.0 size=N/A time=00:05:49.47 bitrate=N/A speed=14.4x    frame= 8567 fps=346 q=-0.0 size=N/A time=00:05:57.31 bitrate=N/A speed=14.4x    frame= 8774 fps=347 q=-0.0 size=N/A time=00:06:05.94 bitrate=N/A speed=14.5x    frame= 8963 fps=348 q=-0.0 size=N/A time=00:06:13.83 bitrate=N/A speed=14.5x    frame= 9148 fps=348 q=-0.0 size=N/A time=00:06:21.54 bitrate=N/A speed=14.5x    frame= 9351 fps=349 q=-0.0 size=N/A time=00:06:30.01 bitrate=N/A speed=14.5x    frame= 9543 fps=349 q=-0.0 size=N/A time=00:06:38.02 bitrate=N/A speed=14.6x    frame= 9735 fps=350 q=-0.0 size=N/A time=00:06:46.03 bitrate=N/A speed=14.6x    frame= 9933 fps=350 q=-0.0 size=N/A time=00:06:54.28 bitrate=N/A speed=14.6x    frame=10120 fps=350 q=-0.0 size=N/A time=00:07:02.08 bitrate=N/A speed=14.6x    frame=10310 fps=351 q=-0.0 size=N/A time=00:07:10.01 bitrate=N/A speed=14.6x    frame=10502 fps=351 q=-0.0 size=N/A time=00:07:18.02 bitrate=N/A speed=14.7x    frame=10684 fps=351 q=-0.0 size=N/A time=00:07:25.61 bitrate=N/A speed=14.6x    frame=10876 fps=352 q=-0.0 size=N/A time=00:07:33.61 bitrate=N/A speed=14.7x    frame=11070 fps=352 q=-0.0 size=N/A time=00:07:41.71 bitrate=N/A speed=14.7x    frame=11258 fps=352 q=-0.0 size=N/A time=00:07:49.55 bitrate=N/A speed=14.7x    frame=11451 fps=353 q=-0.0 size=N/A time=00:07:57.60 bitrate=N/A speed=14.7x    frame=11639 fps=353 q=-0.0 size=N/A time=00:08:05.44 bitrate=N/A speed=14.7x    frame=11834 fps=353 q=-0.0 size=N/A time=00:08:13.57 bitrate=N/A speed=14.7x    frame=12014 fps=353 q=-0.0 size=N/A time=00:08:21.08 bitrate=N/A speed=14.7x    frame=12203 fps=353 q=-0.0 size=N/A time=00:08:28.96 bitrate=N/A speed=14.7x    frame=12399 fps=354 q=-0.0 size=N/A time=00:08:37.14 bitrate=N/A speed=14.8x    frame=12593 fps=354 q=-0.0 size=N/A time=00:08:45.23 bitrate=N/A speed=14.8x    frame=12797 fps=355 q=-0.0 size=N/A time=00:08:53.74 bitrate=N/A speed=14.8x    frame=12984 fps=355 q=-0.0 size=N/A time=00:09:01.54 bitrate=N/A speed=14.8x    frame=13176 fps=355 q=-0.0 size=N/A time=00:09:09.54 bitrate=N/A speed=14.8x    frame=13370 fps=355 q=-0.0 size=N/A time=00:09:17.64 bitrate=N/A speed=14.8x    frame=13548 fps=355 q=-0.0 size=N/A time=00:09:25.06 bitrate=N/A speed=14.8x    frame=13747 fps=355 q=-0.0 size=N/A time=00:09:33.36 bitrate=N/A speed=14.8x    frame=13937 fps=355 q=-0.0 size=N/A time=00:09:41.28 bitrate=N/A speed=14.8x    frame=14117 fps=355 q=-0.0 size=N/A time=00:09:48.79 bitrate=N/A speed=14.8x    frame=14298 fps=355 q=-0.0 size=N/A time=00:09:56.34 bitrate=N/A speed=14.8x    frame=14494 fps=356 q=-0.0 size=N/A time=00:10:04.52 bitrate=N/A speed=14.8x    frame=14683 fps=356 q=-0.0 size=N/A time=00:10:12.40 bitrate=N/A speed=14.8x    frame=14870 fps=356 q=-0.0 size=N/A time=00:10:20.20 bitrate=N/A speed=14.8x    frame=15055 fps=356 q=-0.0 size=N/A time=00:10:27.91 bitrate=N/A speed=14.8x    frame=15218 fps=355 q=-0.0 size=N/A time=00:10:34.71 bitrate=N/A speed=14.8x    frame=15402 fps=355 q=-0.0 size=N/A time=00:10:42.39 bitrate=N/A speed=14.8x    frame=15587 fps=355 q=-0.0 size=N/A time=00:10:50.10 bitrate=N/A speed=14.8x    frame=15753 fps=355 q=-0.0 size=N/A time=00:10:57.03 bitrate=N/A speed=14.8x    frame=15946 fps=355 q=-0.0 size=N/A time=00:11:05.08 bitrate=N/A speed=14.8x    frame=16141 fps=355 q=-0.0 size=N/A time=00:11:13.21 bitrate=N/A speed=14.8x    frame=16334 fps=356 q=-0.0 size=N/A time=00:11:21.26 bitrate=N/A speed=14.8x    frame=16516 fps=356 q=-0.0 size=N/A time=00:11:28.85 bitrate=N/A speed=14.8x    frame=16718 fps=356 q=-0.0 size=N/A time=00:11:37.27 bitrate=N/A speed=14.9x    frame=16913 fps=356 q=-0.0 size=N/A time=00:11:45.41 bitrate=N/A speed=14.9x    frame=17105 fps=357 q=-0.0 size=N/A time=00:11:53.42 bitrate=N/A speed=14.9x    frame=17297 fps=357 q=-0.0 size=N/A time=00:12:01.42 bitrate=N/A speed=14.9x    frame=17492 fps=357 q=-0.0 size=N/A time=00:12:09.56 bitrate=N/A speed=14.9x    frame=17678 fps=357 q=-0.0 size=N/A time=00:12:17.31 bitrate=N/A speed=14.9x    frame=17860 fps=357 q=-0.0 size=N/A time=00:12:24.91 bitrate=N/A speed=14.9x    frame=18048 fps=357 q=-0.0 size=N/A time=00:12:32.75 bitrate=N/A speed=14.9x    frame=18235 fps=357 q=-0.0 size=N/A time=00:12:40.55 bitrate=N/A speed=14.9x    frame=18422 fps=357 q=-0.0 size=N/A time=00:12:48.35 bitrate=N/A speed=14.9x    frame=18627 fps=357 q=-0.0 size=N/A time=00:12:56.90 bitrate=N/A speed=14.9x    frame=18817 fps=358 q=-0.0 size=N/A time=00:13:04.82 bitrate=N/A speed=14.9x    frame=19021 fps=358 q=-0.0 size=N/A time=00:13:13.33 bitrate=N/A speed=14.9x    frame=19228 fps=358 q=-0.0 size=N/A time=00:13:21.96 bitrate=N/A speed=14.9x    frame=19417 fps=358 q=-0.0 size=N/A time=00:13:29.85 bitrate=N/A speed=  15x    frame=19617 fps=359 q=-0.0 size=N/A time=00:13:38.19 bitrate=N/A speed=  15x    frame=19811 fps=359 q=-0.0 size=N/A time=00:13:46.28 bitrate=N/A speed=  15x    frame=20016 fps=359 q=-0.0 size=N/A time=00:13:54.83 bitrate=N/A speed=  15x    frame=20216 fps=360 q=-0.0 size=N/A time=00:14:03.17 bitrate=N/A speed=  15x    frame=20405 fps=360 q=-0.0 size=N/A time=00:14:11.05 bitrate=N/A speed=  15x    frame=20588 fps=360 q=-0.0 size=N/A time=00:14:18.69 bitrate=N/A speed=  15x    frame=20777 fps=359 q=-0.0 size=N/A time=00:14:26.57 bitrate=N/A speed=  15x    frame=20964 fps=360 q=-0.0 size=N/A time=00:14:34.37 bitrate=N/A speed=  15x    frame=21160 fps=360 q=-0.0 size=N/A time=00:14:42.54 bitrate=N/A speed=  15x    frame=21355 fps=360 q=-0.0 size=N/A time=00:14:50.68 bitrate=N/A speed=  15x    frame=21552 fps=360 q=-0.0 size=N/A time=00:14:58.89 bitrate=N/A speed=  15x    frame=21743 fps=360 q=-0.0 size=N/A time=00:15:06.86 bitrate=N/A speed=  15x    frame=21943 fps=360 q=-0.0 size=N/A time=00:15:15.20 bitrate=N/A speed=  15x    frame=22139 fps=361 q=-0.0 size=N/A time=00:15:23.38 bitrate=N/A speed=  15x    frame=22320 fps=361 q=-0.0 size=N/A time=00:15:30.93 bitrate=N/A speed=  15x    frame=22531 fps=361 q=-0.0 size=N/A time=00:15:39.73 bitrate=N/A speed=15.1x    frame=22720 fps=361 q=-0.0 size=N/A time=00:15:47.61 bitrate=N/A speed=15.1x    frame=22900 fps=361 q=-0.0 size=N/A time=00:15:55.12 bitrate=N/A speed=15.1x    frame=23107 fps=361 q=-0.0 size=N/A time=00:16:03.75 bitrate=N/A speed=15.1x    frame=23288 fps=361 q=-0.0 size=N/A time=00:16:11.30 bitrate=N/A speed=15.1x    frame=23481 fps=361 q=-0.0 size=N/A time=00:16:19.35 bitrate=N/A speed=15.1x    frame=23680 fps=361 q=-0.0 size=N/A time=00:16:27.65 bitrate=N/A speed=15.1x    frame=23872 fps=361 q=-0.0 size=N/A time=00:16:35.66 bitrate=N/A speed=15.1x    frame=24073 fps=362 q=-0.0 size=N/A time=00:16:44.04 bitrate=N/A speed=15.1x    frame=24267 fps=362 q=-0.0 size=N/A time=00:16:52.13 bitrate=N/A speed=15.1x    frame=24459 fps=362 q=-0.0 size=N/A time=00:17:00.14 bitrate=N/A speed=15.1x    frame=24660 fps=362 q=-0.0 size=N/A time=00:17:08.52 bitrate=N/A speed=15.1x    frame=24865 fps=362 q=-0.0 size=N/A time=00:17:17.07 bitrate=N/A speed=15.1x    frame=25055 fps=362 q=-0.0 size=N/A time=00:17:25.00 bitrate=N/A speed=15.1x    frame=25250 fps=363 q=-0.0 size=N/A time=00:17:33.13 bitrate=N/A speed=15.1x    frame=25437 fps=362 q=-0.0 size=N/A time=00:17:40.93 bitrate=N/A speed=15.1x    frame=25626 fps=363 q=-0.0 size=N/A time=00:17:48.81 bitrate=N/A speed=15.1x    frame=25817 fps=363 q=-0.0 size=N/A time=00:17:56.78 bitrate=N/A speed=15.1x    frame=26023 fps=363 q=-0.0 size=N/A time=00:18:05.37 bitrate=N/A speed=15.1x    frame=26218 fps=363 q=-0.0 size=N/A time=00:18:13.50 bitrate=N/A speed=15.1x    frame=26414 fps=363 q=-0.0 size=N/A time=00:18:21.68 bitrate=N/A speed=15.1x    frame=26609 fps=363 q=-0.0 size=N/A time=00:18:29.81 bitrate=N/A speed=15.1x    frame=26806 fps=363 q=-0.0 size=N/A time=00:18:38.03 bitrate=N/A speed=15.2x    frame=26981 fps=363 q=-0.0 size=N/A time=00:18:45.33 bitrate=N/A speed=15.1x    frame=27158 fps=363 q=-0.0 size=N/A time=00:18:52.71 bitrate=N/A speed=15.1x    frame=27341 fps=363 q=-0.0 size=N/A time=00:19:00.34 bitrate=N/A speed=15.1x    frame=27531 fps=363 q=-0.0 size=N/A time=00:19:08.27 bitrate=N/A speed=15.1x    frame=27714 fps=363 q=-0.0 size=N/A time=00:19:15.90 bitrate=N/A speed=15.1x    frame=27904 fps=363 q=-0.0 size=N/A time=00:19:23.82 bitrate=N/A speed=15.1x    frame=28089 fps=363 q=-0.0 size=N/A time=00:19:31.54 bitrate=N/A speed=15.1x    frame=28280 fps=363 q=-0.0 size=N/A time=00:19:39.51 bitrate=N/A speed=15.1x    frame=28463 fps=363 q=-0.0 size=N/A time=00:19:47.14 bitrate=N/A speed=15.1x    frame=28656 fps=363 q=-0.0 size=N/A time=00:19:55.19 bitrate=N/A speed=15.1x    frame=28826 fps=363 q=-0.0 size=N/A time=00:20:02.28 bitrate=N/A speed=15.1x    frame=28997 fps=363 q=-0.0 size=N/A time=00:20:09.41 bitrate=N/A speed=15.1x    frame=29177 fps=362 q=-0.0 size=N/A time=00:20:16.92 bitrate=N/A speed=15.1x    frame=29361 fps=362 q=-0.0 size=N/A time=00:20:24.59 bitrate=N/A speed=15.1x    frame=29524 fps=362 q=-0.0 size=N/A time=00:20:31.39 bitrate=N/A speed=15.1x    frame=29699 fps=362 q=-0.0 size=N/A time=00:20:38.69 bitrate=N/A speed=15.1x    frame=29868 fps=362 q=-0.0 size=N/A time=00:20:45.74 bitrate=N/A speed=15.1x    frame=30022 fps=361 q=-0.0 size=N/A time=00:20:52.20 bitrate=N/A speed=15.1x    frame=30210 fps=361 q=-0.0 size=N/A time=00:21:00.00 bitrate=N/A speed=15.1x    frame=30400 fps=361 q=-0.0 size=N/A time=00:21:07.93 bitrate=N/A speed=15.1x    frame=30597 fps=361 q=-0.0 size=N/A time=00:21:16.14 bitrate=N/A speed=15.1x    frame=30790 fps=362 q=-0.0 size=N/A time=00:21:24.19 bitrate=N/A speed=15.1x    frame=30976 fps=362 q=-0.0 size=N/A time=00:21:31.95 bitrate=N/A speed=15.1x    frame=31169 fps=362 q=-0.0 size=N/A time=00:21:40.00 bitrate=N/A speed=15.1x    frame=31353 fps=362 q=-0.0 size=N/A time=00:21:47.68 bitrate=N/A speed=15.1x    frame=31550 fps=362 q=-0.0 size=N/A time=00:21:55.89 bitrate=N/A speed=15.1x    frame=31734 fps=362 q=-0.0 size=N/A time=00:22:03.57 bitrate=N/A speed=15.1x    frame=31907 fps=362 q=-0.0 size=N/A time=00:22:10.78 bitrate=N/A speed=15.1x    frame=32088 fps=361 q=-0.0 size=N/A time=00:22:18.33 bitrate=N/A speed=15.1x    frame=32281 fps=362 q=-0.0 size=N/A time=00:22:26.38 bitrate=N/A speed=15.1x    frame=32470 fps=362 q=-0.0 size=N/A time=00:22:34.26 bitrate=N/A speed=15.1x    frame=32647 fps=361 q=-0.0 size=N/A time=00:22:41.65 bitrate=N/A speed=15.1x    frame=32791 fps=361 q=-0.0 size=N/A time=00:22:47.65 bitrate=N/A speed=15.1x    frame=32957 fps=361 q=-0.0 size=N/A time=00:22:54.58 bitrate=N/A speed=  15x    frame=33138 fps=361 q=-0.0 size=N/A time=00:23:02.13 bitrate=N/A speed=  15x    frame=33319 fps=361 q=-0.0 size=N/A time=00:23:09.67 bitrate=N/A speed=  15x    frame=33482 fps=360 q=-0.0 size=N/A time=00:23:16.47 bitrate=N/A speed=  15x    frame=33638 fps=360 q=-0.0 size=N/A time=00:23:22.98 bitrate=N/A speed=  15x    frame=33772 fps=360 q=-0.0 size=N/A time=00:23:28.57 bitrate=N/A speed=  15x    frame=33896 fps=359 q=-0.0 size=N/A time=00:23:33.74 bitrate=N/A speed=  15x    frame=34057 fps=359 q=-0.0 size=N/A time=00:23:40.46 bitrate=N/A speed=  15x    frame=34223 fps=358 q=-0.0 size=N/A time=00:23:47.38 bitrate=N/A speed=  15x    frame=34357 fps=358 q=-0.0 size=N/A time=00:23:52.97 bitrate=N/A speed=14.9x    frame=34493 fps=357 q=-0.0 size=N/A time=00:23:58.64 bitrate=N/A speed=14.9x    frame=34681 fps=358 q=-0.0 size=N/A time=00:24:06.48 bitrate=N/A speed=14.9x    [Parsed_psnr_16 @ 0000019bb8c0d800] PSNR y:48.963940 u:50.335299 v:50.386154 average:49.381512 min:38.009039 max:inf
[out#0/null @ 0000019bab078a00] video:14903KiB audio:271276KiB subtitle:0KiB other streams:0KiB global headers:0KiB muxing overhead: unknown
frame=34683 fps=357 q=-0.0 Lsize=N/A time=00:24:06.57 bitrate=N/A speed=14.9x    
